<mxfile host="app.diagrams.net" modified="2024-03-30T15:33:35.119Z" agent="Mozilla/5.0 (Macintosh; Intel Mac OS X 10_15_7) AppleWebKit/537.36 (KHTML, like Gecko) Chrome/123.0.0.0 Safari/537.36" etag="L2Ncd3kAcinS70QNc-0o" version="24.2.1" type="device">
  <diagram id="C5RBs43oDa-KdzZeNtuy" name="Page-1">
    <mxGraphModel dx="775" dy="604" grid="1" gridSize="10" guides="1" tooltips="1" connect="1" arrows="1" fold="1" page="1" pageScale="1" pageWidth="827" pageHeight="1169" math="0" shadow="0">
      <root>
        <mxCell id="WIyWlLk6GJQsqaUBKTNV-0" />
        <mxCell id="WIyWlLk6GJQsqaUBKTNV-1" parent="WIyWlLk6GJQsqaUBKTNV-0" />
        <mxCell id="gv6H3Rjc2FnPoGJvlaB8-130" value="" style="rounded=1;whiteSpace=wrap;html=1;fillColor=#eeeeee;strokeColor=#36393d;" parent="WIyWlLk6GJQsqaUBKTNV-1" vertex="1">
          <mxGeometry x="350" y="630" width="766" height="220" as="geometry" />
        </mxCell>
        <mxCell id="gv6H3Rjc2FnPoGJvlaB8-124" value="" style="rounded=1;whiteSpace=wrap;html=1;fillColor=#f5f5f5;fontColor=#333333;strokeColor=#666666;" parent="WIyWlLk6GJQsqaUBKTNV-1" vertex="1">
          <mxGeometry x="350" y="280" width="770" height="320" as="geometry" />
        </mxCell>
        <mxCell id="gv6H3Rjc2FnPoGJvlaB8-11" value="" style="group;fontSize=14;" parent="WIyWlLk6GJQsqaUBKTNV-1" vertex="1" connectable="0">
          <mxGeometry x="720" y="320" width="420" height="240" as="geometry" />
        </mxCell>
        <mxCell id="gv6H3Rjc2FnPoGJvlaB8-4" value="" style="edgeStyle=orthogonalEdgeStyle;rounded=0;orthogonalLoop=1;jettySize=auto;html=1;fontSize=14;" parent="gv6H3Rjc2FnPoGJvlaB8-11" source="gv6H3Rjc2FnPoGJvlaB8-2" target="gv6H3Rjc2FnPoGJvlaB8-3" edge="1">
          <mxGeometry relative="1" as="geometry" />
        </mxCell>
        <mxCell id="gv6H3Rjc2FnPoGJvlaB8-2" value="&lt;font style=&quot;font-size: 12px;&quot;&gt;Collect Preferences&lt;/font&gt;&lt;div style=&quot;font-size: 12px;&quot;&gt;&lt;font style=&quot;font-size: 12px;&quot;&gt;of All Agents&lt;/font&gt;&lt;/div&gt;" style="shape=parallelogram;perimeter=parallelogramPerimeter;html=1;fixedSize=1;fontSize=12;fillColor=#bac8d3;strokeColor=#23445d;whiteSpace=wrap;" parent="gv6H3Rjc2FnPoGJvlaB8-11" vertex="1">
          <mxGeometry y="11.428571428571429" width="132.6315789473684" height="68.57142857142858" as="geometry" />
        </mxCell>
        <mxCell id="gv6H3Rjc2FnPoGJvlaB8-6" value="" style="edgeStyle=orthogonalEdgeStyle;rounded=0;orthogonalLoop=1;jettySize=auto;html=1;fontSize=14;" parent="gv6H3Rjc2FnPoGJvlaB8-11" source="gv6H3Rjc2FnPoGJvlaB8-3" target="gv6H3Rjc2FnPoGJvlaB8-5" edge="1">
          <mxGeometry relative="1" as="geometry" />
        </mxCell>
        <mxCell id="gv6H3Rjc2FnPoGJvlaB8-3" value="&lt;font style=&quot;font-size: 14px;&quot;&gt;Voting Scheme&lt;/font&gt;" style="rhombus;whiteSpace=wrap;html=1;fontSize=14;fillColor=#fff2cc;strokeColor=#d6b656;" parent="gv6H3Rjc2FnPoGJvlaB8-11" vertex="1">
          <mxGeometry x="158.55" y="5.71" width="80.79" height="80" as="geometry" />
        </mxCell>
        <mxCell id="gv6H3Rjc2FnPoGJvlaB8-8" value="" style="edgeStyle=orthogonalEdgeStyle;rounded=0;orthogonalLoop=1;jettySize=auto;html=1;fontSize=14;" parent="gv6H3Rjc2FnPoGJvlaB8-11" source="gv6H3Rjc2FnPoGJvlaB8-5" target="gv6H3Rjc2FnPoGJvlaB8-7" edge="1">
          <mxGeometry relative="1" as="geometry" />
        </mxCell>
        <mxCell id="gv6H3Rjc2FnPoGJvlaB8-5" value="&lt;font style=&quot;font-size: 14px;&quot;&gt;Initial Votes&lt;/font&gt;" style="whiteSpace=wrap;html=1;fontSize=14;fillColor=#f0a30a;strokeColor=#BD7000;fontColor=#000000;" parent="gv6H3Rjc2FnPoGJvlaB8-11" vertex="1">
          <mxGeometry x="132.6315789473684" y="114.28571428571429" width="132.6315789473684" height="34.28571428571429" as="geometry" />
        </mxCell>
        <mxCell id="gv6H3Rjc2FnPoGJvlaB8-10" value="" style="edgeStyle=orthogonalEdgeStyle;rounded=0;orthogonalLoop=1;jettySize=auto;html=1;fontSize=14;" parent="gv6H3Rjc2FnPoGJvlaB8-11" source="gv6H3Rjc2FnPoGJvlaB8-7" target="gv6H3Rjc2FnPoGJvlaB8-9" edge="1">
          <mxGeometry relative="1" as="geometry" />
        </mxCell>
        <mxCell id="gv6H3Rjc2FnPoGJvlaB8-7" value="&lt;font style=&quot;font-size: 14px;&quot;&gt;Calculate Initial Results&lt;/font&gt;" style="shape=parallelogram;perimeter=parallelogramPerimeter;whiteSpace=wrap;html=1;fixedSize=1;fontSize=14;fillColor=#bac8d3;strokeColor=#23445d;" parent="gv6H3Rjc2FnPoGJvlaB8-11" vertex="1">
          <mxGeometry x="135.26" y="171.43" width="127.37" height="68.57" as="geometry" />
        </mxCell>
        <mxCell id="gv6H3Rjc2FnPoGJvlaB8-9" value="&lt;font style=&quot;font-size: 14px;&quot;&gt;Initial Total Happiness&lt;/font&gt;" style="whiteSpace=wrap;html=1;fontSize=14;fillColor=#fa6800;fontColor=#000000;strokeColor=#C73500;" parent="gv6H3Rjc2FnPoGJvlaB8-11" vertex="1">
          <mxGeometry x="287.37" y="176.43" width="82.63" height="58.57" as="geometry" />
        </mxCell>
        <mxCell id="gv6H3Rjc2FnPoGJvlaB8-94" style="edgeStyle=orthogonalEdgeStyle;rounded=0;orthogonalLoop=1;jettySize=auto;html=1;exitX=1;exitY=0.5;exitDx=0;exitDy=0;entryX=0;entryY=0.5;entryDx=0;entryDy=0;" parent="WIyWlLk6GJQsqaUBKTNV-1" source="gv6H3Rjc2FnPoGJvlaB8-20" target="gv6H3Rjc2FnPoGJvlaB8-2" edge="1">
          <mxGeometry relative="1" as="geometry" />
        </mxCell>
        <mxCell id="gv6H3Rjc2FnPoGJvlaB8-105" value="" style="group;fontSize=14;" parent="WIyWlLk6GJQsqaUBKTNV-1" vertex="1" connectable="0">
          <mxGeometry x="720" y="660" width="420" height="240" as="geometry" />
        </mxCell>
        <mxCell id="gv6H3Rjc2FnPoGJvlaB8-110" value="" style="edgeStyle=orthogonalEdgeStyle;rounded=0;orthogonalLoop=1;jettySize=auto;html=1;fontSize=14;" parent="gv6H3Rjc2FnPoGJvlaB8-105" source="gv6H3Rjc2FnPoGJvlaB8-111" target="gv6H3Rjc2FnPoGJvlaB8-113" edge="1">
          <mxGeometry relative="1" as="geometry" />
        </mxCell>
        <mxCell id="gv6H3Rjc2FnPoGJvlaB8-111" value="&lt;font style=&quot;font-size: 14px;&quot;&gt;Final Votes&lt;/font&gt;" style="whiteSpace=wrap;html=1;fontSize=14;fillColor=#f0a30a;strokeColor=#BD7000;fontColor=#000000;" parent="gv6H3Rjc2FnPoGJvlaB8-105" vertex="1">
          <mxGeometry x="130.00157894736842" y="18.625714285714295" width="132.6315789473684" height="34.28571428571429" as="geometry" />
        </mxCell>
        <mxCell id="gv6H3Rjc2FnPoGJvlaB8-112" value="" style="edgeStyle=orthogonalEdgeStyle;rounded=0;orthogonalLoop=1;jettySize=auto;html=1;fontSize=14;" parent="gv6H3Rjc2FnPoGJvlaB8-105" source="gv6H3Rjc2FnPoGJvlaB8-113" target="gv6H3Rjc2FnPoGJvlaB8-114" edge="1">
          <mxGeometry relative="1" as="geometry" />
        </mxCell>
        <mxCell id="gv6H3Rjc2FnPoGJvlaB8-113" value="&lt;font style=&quot;font-size: 14px;&quot;&gt;Calculate Final Results&lt;/font&gt;" style="shape=parallelogram;perimeter=parallelogramPerimeter;whiteSpace=wrap;html=1;fixedSize=1;fontSize=14;fillColor=#bac8d3;strokeColor=#23445d;" parent="gv6H3Rjc2FnPoGJvlaB8-105" vertex="1">
          <mxGeometry x="132.63" y="75.77000000000001" width="127.37" height="68.57" as="geometry" />
        </mxCell>
        <mxCell id="gv6H3Rjc2FnPoGJvlaB8-114" value="&lt;font style=&quot;font-size: 14px;&quot;&gt;Final Total Happiness&lt;/font&gt;" style="whiteSpace=wrap;html=1;fontSize=14;fillColor=#fa6800;fontColor=#000000;strokeColor=#C73500;" parent="gv6H3Rjc2FnPoGJvlaB8-105" vertex="1">
          <mxGeometry x="284.74" y="80.77000000000001" width="82.63" height="58.57" as="geometry" />
        </mxCell>
        <mxCell id="gv6H3Rjc2FnPoGJvlaB8-129" value="&lt;font style=&quot;font-size: 24px;&quot;&gt;4&lt;/font&gt;" style="ellipse;whiteSpace=wrap;html=1;aspect=fixed;" parent="gv6H3Rjc2FnPoGJvlaB8-105" vertex="1">
          <mxGeometry x="350" y="10" width="30" height="30" as="geometry" />
        </mxCell>
        <mxCell id="gv6H3Rjc2FnPoGJvlaB8-116" value="" style="endArrow=none;dashed=1;html=1;rounded=0;strokeWidth=3;" parent="WIyWlLk6GJQsqaUBKTNV-1" edge="1">
          <mxGeometry width="50" height="50" relative="1" as="geometry">
            <mxPoint x="700" y="850" as="sourcePoint" />
            <mxPoint x="700" y="280" as="targetPoint" />
          </mxGeometry>
        </mxCell>
        <mxCell id="gv6H3Rjc2FnPoGJvlaB8-120" value="" style="group" parent="WIyWlLk6GJQsqaUBKTNV-1" vertex="1" connectable="0">
          <mxGeometry x="390" y="280" width="210" height="270" as="geometry" />
        </mxCell>
        <mxCell id="gv6H3Rjc2FnPoGJvlaB8-17" value="" style="rounded=1;whiteSpace=wrap;html=1;fontSize=14;arcSize=22;" parent="gv6H3Rjc2FnPoGJvlaB8-120" vertex="1">
          <mxGeometry y="30" width="60" height="240" as="geometry" />
        </mxCell>
        <mxCell id="gv6H3Rjc2FnPoGJvlaB8-12" value="SA2" style="ellipse;whiteSpace=wrap;html=1;aspect=fixed;fillColor=#dae8fc;strokeColor=#6c8ebf;fontSize=14;" parent="gv6H3Rjc2FnPoGJvlaB8-120" vertex="1">
          <mxGeometry x="10" y="90" width="40" height="40" as="geometry" />
        </mxCell>
        <mxCell id="gv6H3Rjc2FnPoGJvlaB8-13" value="NA2" style="ellipse;whiteSpace=wrap;html=1;aspect=fixed;fillColor=#d5e8d4;strokeColor=#82b366;fontSize=14;" parent="gv6H3Rjc2FnPoGJvlaB8-120" vertex="1">
          <mxGeometry x="10" y="140" width="40" height="40" as="geometry" />
        </mxCell>
        <mxCell id="gv6H3Rjc2FnPoGJvlaB8-14" value="NA-n" style="ellipse;whiteSpace=wrap;html=1;aspect=fixed;fillColor=#d5e8d4;strokeColor=#82b366;fontSize=14;" parent="gv6H3Rjc2FnPoGJvlaB8-120" vertex="1">
          <mxGeometry x="10" y="220" width="40" height="40" as="geometry" />
        </mxCell>
        <mxCell id="gv6H3Rjc2FnPoGJvlaB8-15" value="" style="endArrow=none;dashed=1;html=1;rounded=0;entryX=0.5;entryY=1;entryDx=0;entryDy=0;strokeWidth=6;dashPattern=1 2;fontSize=14;" parent="gv6H3Rjc2FnPoGJvlaB8-120" target="gv6H3Rjc2FnPoGJvlaB8-13" edge="1">
          <mxGeometry width="50" height="50" relative="1" as="geometry">
            <mxPoint x="30" y="210" as="sourcePoint" />
            <mxPoint x="270" y="160" as="targetPoint" />
          </mxGeometry>
        </mxCell>
        <mxCell id="gv6H3Rjc2FnPoGJvlaB8-16" value="SA1" style="ellipse;whiteSpace=wrap;html=1;aspect=fixed;fillColor=#f8cecc;strokeColor=#b85450;fontSize=14;" parent="gv6H3Rjc2FnPoGJvlaB8-120" vertex="1">
          <mxGeometry x="10" y="40" width="40" height="40" as="geometry" />
        </mxCell>
        <mxCell id="gv6H3Rjc2FnPoGJvlaB8-32" value="" style="edgeStyle=orthogonalEdgeStyle;rounded=0;orthogonalLoop=1;jettySize=auto;html=1;" parent="gv6H3Rjc2FnPoGJvlaB8-120" source="gv6H3Rjc2FnPoGJvlaB8-21" target="gv6H3Rjc2FnPoGJvlaB8-16" edge="1">
          <mxGeometry relative="1" as="geometry" />
        </mxCell>
        <mxCell id="gv6H3Rjc2FnPoGJvlaB8-28" value="" style="edgeStyle=orthogonalEdgeStyle;rounded=0;orthogonalLoop=1;jettySize=auto;html=1;dashed=1;shape=link;dashPattern=1 1;strokeWidth=3;fontSize=14;" parent="gv6H3Rjc2FnPoGJvlaB8-120" target="gv6H3Rjc2FnPoGJvlaB8-24" edge="1">
          <mxGeometry relative="1" as="geometry">
            <mxPoint x="160" y="180" as="sourcePoint" />
          </mxGeometry>
        </mxCell>
        <mxCell id="gv6H3Rjc2FnPoGJvlaB8-39" value="Prefernces" style="text;html=1;align=center;verticalAlign=middle;whiteSpace=wrap;rounded=0;fontSize=14;" parent="gv6H3Rjc2FnPoGJvlaB8-120" vertex="1">
          <mxGeometry x="80" width="120" height="30" as="geometry" />
        </mxCell>
        <mxCell id="gv6H3Rjc2FnPoGJvlaB8-40" value="Agents" style="text;html=1;align=center;verticalAlign=middle;whiteSpace=wrap;rounded=0;fontSize=14;" parent="gv6H3Rjc2FnPoGJvlaB8-120" vertex="1">
          <mxGeometry width="60" height="30" as="geometry" />
        </mxCell>
        <mxCell id="gv6H3Rjc2FnPoGJvlaB8-34" value="" style="endArrow=classic;html=1;rounded=0;exitX=1;exitY=0.5;exitDx=0;exitDy=0;entryX=0;entryY=0.5;entryDx=0;entryDy=0;strokeWidth=2;" parent="gv6H3Rjc2FnPoGJvlaB8-120" source="gv6H3Rjc2FnPoGJvlaB8-13" target="gv6H3Rjc2FnPoGJvlaB8-29" edge="1">
          <mxGeometry width="50" height="50" relative="1" as="geometry">
            <mxPoint x="60" y="120" as="sourcePoint" />
            <mxPoint x="100" y="120" as="targetPoint" />
          </mxGeometry>
        </mxCell>
        <mxCell id="gv6H3Rjc2FnPoGJvlaB8-35" value="" style="endArrow=classic;html=1;rounded=0;exitX=1;exitY=0.5;exitDx=0;exitDy=0;entryX=0;entryY=0.5;entryDx=0;entryDy=0;strokeWidth=2;" parent="gv6H3Rjc2FnPoGJvlaB8-120" source="gv6H3Rjc2FnPoGJvlaB8-14" target="gv6H3Rjc2FnPoGJvlaB8-24" edge="1">
          <mxGeometry width="50" height="50" relative="1" as="geometry">
            <mxPoint x="70" y="130" as="sourcePoint" />
            <mxPoint x="110" y="130" as="targetPoint" />
          </mxGeometry>
        </mxCell>
        <mxCell id="gv6H3Rjc2FnPoGJvlaB8-31" value="" style="endArrow=classic;startArrow=classic;html=1;rounded=0;strokeWidth=2;" parent="gv6H3Rjc2FnPoGJvlaB8-120" source="gv6H3Rjc2FnPoGJvlaB8-16" edge="1">
          <mxGeometry width="50" height="50" relative="1" as="geometry">
            <mxPoint x="280" y="120" as="sourcePoint" />
            <mxPoint x="90" y="60" as="targetPoint" />
          </mxGeometry>
        </mxCell>
        <mxCell id="d24at20l60suZ-zVcKSB-2" value="" style="endArrow=classic;startArrow=classic;html=1;rounded=0;exitX=1;exitY=0.5;exitDx=0;exitDy=0;strokeWidth=2;" edge="1" parent="gv6H3Rjc2FnPoGJvlaB8-120" source="gv6H3Rjc2FnPoGJvlaB8-12">
          <mxGeometry width="50" height="50" relative="1" as="geometry">
            <mxPoint x="230" y="270" as="sourcePoint" />
            <mxPoint x="90" y="110" as="targetPoint" />
          </mxGeometry>
        </mxCell>
        <mxCell id="gv6H3Rjc2FnPoGJvlaB8-20" value="" style="rounded=0;whiteSpace=wrap;html=1;fontSize=14;" parent="gv6H3Rjc2FnPoGJvlaB8-120" vertex="1">
          <mxGeometry x="90" y="30" width="120" height="240" as="geometry" />
        </mxCell>
        <mxCell id="gv6H3Rjc2FnPoGJvlaB8-21" value="&lt;font style=&quot;font-size: 14px;&quot;&gt;Preference of SA1&lt;/font&gt;" style="rounded=1;whiteSpace=wrap;html=1;fillColor=#f8cecc;strokeColor=#b85450;fontSize=14;" parent="gv6H3Rjc2FnPoGJvlaB8-120" vertex="1">
          <mxGeometry x="97.5" y="40" width="105" height="40" as="geometry" />
        </mxCell>
        <mxCell id="gv6H3Rjc2FnPoGJvlaB8-24" value="Preference of NA-n" style="rounded=1;whiteSpace=wrap;html=1;fontSize=14;fillColor=#d5e8d4;strokeColor=#82b366;" parent="gv6H3Rjc2FnPoGJvlaB8-120" vertex="1">
          <mxGeometry x="97.5" y="220" width="105" height="40" as="geometry" />
        </mxCell>
        <mxCell id="gv6H3Rjc2FnPoGJvlaB8-72" value="" style="edgeStyle=orthogonalEdgeStyle;rounded=0;orthogonalLoop=1;jettySize=auto;html=1;shape=link;dashed=1;dashPattern=1 1;strokeWidth=3;" parent="gv6H3Rjc2FnPoGJvlaB8-120" source="gv6H3Rjc2FnPoGJvlaB8-29" target="gv6H3Rjc2FnPoGJvlaB8-24" edge="1">
          <mxGeometry relative="1" as="geometry" />
        </mxCell>
        <mxCell id="gv6H3Rjc2FnPoGJvlaB8-29" value="&lt;span style=&quot;color: rgb(0, 0, 0); font-family: Helvetica; font-size: 14px; font-style: normal; font-variant-ligatures: normal; font-variant-caps: normal; font-weight: 400; letter-spacing: normal; orphans: 2; text-align: center; text-indent: 0px; text-transform: none; widows: 2; word-spacing: 0px; -webkit-text-stroke-width: 0px; white-space: normal; text-decoration-thickness: initial; text-decoration-style: initial; text-decoration-color: initial; float: none; display: inline !important;&quot;&gt;Preference of NA2&lt;/span&gt;" style="rounded=1;whiteSpace=wrap;html=1;fontSize=14;fillColor=#d5e8d4;strokeColor=#82b366;labelBorderColor=none;labelBackgroundColor=#dae8d8;" parent="gv6H3Rjc2FnPoGJvlaB8-120" vertex="1">
          <mxGeometry x="97.5" y="140" width="105" height="40" as="geometry" />
        </mxCell>
        <mxCell id="d24at20l60suZ-zVcKSB-3" value="&lt;font style=&quot;font-size: 14px;&quot;&gt;Preference of SA2&lt;/font&gt;" style="rounded=1;whiteSpace=wrap;html=1;fillColor=#dae8fc;strokeColor=#6c8ebf;fontSize=14;" vertex="1" parent="gv6H3Rjc2FnPoGJvlaB8-120">
          <mxGeometry x="97.5" y="90" width="105" height="40" as="geometry" />
        </mxCell>
        <mxCell id="gv6H3Rjc2FnPoGJvlaB8-125" value="Initial Voting Round" style="text;html=1;align=center;verticalAlign=middle;whiteSpace=wrap;rounded=0;fontSize=16;labelBackgroundColor=none;labelBorderColor=none;" parent="WIyWlLk6GJQsqaUBKTNV-1" vertex="1">
          <mxGeometry x="940" y="300" width="150" height="30" as="geometry" />
        </mxCell>
        <mxCell id="gv6H3Rjc2FnPoGJvlaB8-126" value="&lt;font style=&quot;font-size: 24px;&quot;&gt;1&lt;/font&gt;" style="ellipse;whiteSpace=wrap;html=1;aspect=fixed;" parent="WIyWlLk6GJQsqaUBKTNV-1" vertex="1">
          <mxGeometry x="610" y="290" width="30" height="30" as="geometry" />
        </mxCell>
        <mxCell id="gv6H3Rjc2FnPoGJvlaB8-127" value="&lt;font style=&quot;font-size: 24px;&quot;&gt;2&lt;/font&gt;&lt;span style=&quot;color: rgba(0, 0, 0, 0); font-family: monospace; font-size: 0px; text-align: start; text-wrap: nowrap;&quot;&gt;%3CmxGraphModel%3E%3Croot%3E%3CmxCell%20id%3D%220%22%2F%3E%3CmxCell%20id%3D%221%22%20parent%3D%220%22%2F%3E%3CmxCell%20id%3D%222%22%20value%3D%22%26lt%3Bfont%20style%3D%26quot%3Bfont-size%3A%2024px%3B%26quot%3B%26gt%3B1%26lt%3B%2Ffont%26gt%3B%22%20style%3D%22ellipse%3BwhiteSpace%3Dwrap%3Bhtml%3D1%3Baspect%3Dfixed%3B%22%20vertex%3D%221%22%20parent%3D%221%22%3E%3CmxGeometry%20x%3D%22610%22%20y%3D%22290%22%20width%3D%2230%22%20height%3D%2230%22%20as%3D%22geometry%22%2F%3E%3C%2FmxCell%3E%3C%2Froot%3E%3C%2FmxGraphModel%3E&lt;/span&gt;" style="ellipse;whiteSpace=wrap;html=1;aspect=fixed;" parent="WIyWlLk6GJQsqaUBKTNV-1" vertex="1">
          <mxGeometry x="1050" y="340" width="30" height="30" as="geometry" />
        </mxCell>
        <mxCell id="gv6H3Rjc2FnPoGJvlaB8-131" value="Strategic Voting Round" style="text;html=1;align=center;verticalAlign=middle;whiteSpace=wrap;rounded=0;fontSize=16;labelBackgroundColor=none;labelBorderColor=none;" parent="WIyWlLk6GJQsqaUBKTNV-1" vertex="1">
          <mxGeometry x="950" y="640" width="150" height="30" as="geometry" />
        </mxCell>
        <mxCell id="gv6H3Rjc2FnPoGJvlaB8-122" style="edgeStyle=orthogonalEdgeStyle;rounded=0;orthogonalLoop=1;jettySize=auto;html=1;exitX=0;exitY=0.5;exitDx=0;exitDy=0;entryX=0.5;entryY=0;entryDx=0;entryDy=0;fillColor=#f0a30a;strokeColor=#BD7000;strokeWidth=3;" parent="WIyWlLk6GJQsqaUBKTNV-1" source="gv6H3Rjc2FnPoGJvlaB8-5" target="gv6H3Rjc2FnPoGJvlaB8-111" edge="1">
          <mxGeometry relative="1" as="geometry">
            <mxPoint x="870" y="700" as="targetPoint" />
            <Array as="points">
              <mxPoint x="810" y="451" />
              <mxPoint x="810" y="660" />
              <mxPoint x="916" y="660" />
            </Array>
          </mxGeometry>
        </mxCell>
        <mxCell id="gv6H3Rjc2FnPoGJvlaB8-128" value="&lt;font style=&quot;font-size: 24px;&quot;&gt;3&lt;/font&gt;&lt;span style=&quot;color: rgba(0, 0, 0, 0); font-family: monospace; font-size: 0px; text-align: start; text-wrap: nowrap;&quot;&gt;%3CmxGraphModel%3E%3Croot%3E%3CmxCell%20id%3D%220%22%2F%3E%3CmxCell%20id%3D%221%22%20parent%3D%220%22%2F%3E%3CmxCell%20id%3D%222%22%20value%3D%22%26lt%3Bfont%20style%3D%26quot%3Bfont-size%3A%2024px%3B%26quot%3B%26gt%3B1%26lt%3B%2Ffont%26gt%3B%22%20style%3D%22ellipse%3BwhiteSpace%3Dwrap%3Bhtml%3D1%3Baspect%3Dfixed%3B%22%20vertex%3D%221%22%20parent%3D%221%22%3E%3CmxGeometry%20x%3D%22610%22%20y%3D%22290%22%20width%3D%2230%22%20height%3D%2230%22%20as%3D%22geometry%22%2F%3E%3C%2FmxCell%3E%3C%2Froot%3E%3C%2FmxGraphModel%3E&lt;/span&gt;" style="ellipse;whiteSpace=wrap;html=1;aspect=fixed;" parent="WIyWlLk6GJQsqaUBKTNV-1" vertex="1">
          <mxGeometry x="660" y="640" width="30" height="30" as="geometry" />
        </mxCell>
        <mxCell id="d24at20l60suZ-zVcKSB-4" value="" style="group" vertex="1" connectable="0" parent="WIyWlLk6GJQsqaUBKTNV-1">
          <mxGeometry x="510" y="650" width="150" height="90" as="geometry" />
        </mxCell>
        <mxCell id="gv6H3Rjc2FnPoGJvlaB8-133" value="" style="rounded=1;whiteSpace=wrap;html=1;fillColor=#ffe6cc;strokeColor=#d79b00;strokeWidth=2;fontSize=10;container=0;" parent="d24at20l60suZ-zVcKSB-4" vertex="1">
          <mxGeometry width="150" height="90" as="geometry" />
        </mxCell>
        <mxCell id="gv6H3Rjc2FnPoGJvlaB8-73" value="Strategic Voting" style="shape=parallelogram;perimeter=parallelogramPerimeter;whiteSpace=wrap;html=1;fixedSize=1;fontSize=10;fillColor=#bac8d3;strokeColor=#23445d;container=0;" parent="d24at20l60suZ-zVcKSB-4" vertex="1">
          <mxGeometry x="65.18518518518516" y="10" width="71.11111111111111" height="25" as="geometry" />
        </mxCell>
        <mxCell id="gv6H3Rjc2FnPoGJvlaB8-79" value="Voting Strategy" style="rhombus;whiteSpace=wrap;html=1;fontSize=8;fillColor=#f8cecc;strokeColor=#b85450;container=0;" parent="d24at20l60suZ-zVcKSB-4" vertex="1">
          <mxGeometry x="77.03703703703701" y="50" width="47.407407407407405" height="35" as="geometry" />
        </mxCell>
        <mxCell id="d24at20l60suZ-zVcKSB-1" style="edgeStyle=orthogonalEdgeStyle;rounded=0;orthogonalLoop=1;jettySize=auto;html=1;exitX=1;exitY=0.5;exitDx=0;exitDy=0;entryX=0;entryY=0.5;entryDx=0;entryDy=0;" edge="1" parent="d24at20l60suZ-zVcKSB-4" source="gv6H3Rjc2FnPoGJvlaB8-46" target="gv6H3Rjc2FnPoGJvlaB8-73">
          <mxGeometry relative="1" as="geometry" />
        </mxCell>
        <mxCell id="gv6H3Rjc2FnPoGJvlaB8-46" value="SA1" style="ellipse;whiteSpace=wrap;html=1;aspect=fixed;fillColor=#f8cecc;strokeColor=#b85450;fontSize=14;container=0;" parent="d24at20l60suZ-zVcKSB-4" vertex="1">
          <mxGeometry x="16.74000000000001" y="6.649999999999977" width="31.7" height="31.7" as="geometry" />
        </mxCell>
        <mxCell id="gv6H3Rjc2FnPoGJvlaB8-81" style="edgeStyle=orthogonalEdgeStyle;rounded=0;orthogonalLoop=1;jettySize=auto;html=1;exitX=0.5;exitY=0;exitDx=0;exitDy=0;entryX=0.5;entryY=1;entryDx=0;entryDy=0;" parent="d24at20l60suZ-zVcKSB-4" source="gv6H3Rjc2FnPoGJvlaB8-79" target="gv6H3Rjc2FnPoGJvlaB8-73" edge="1">
          <mxGeometry relative="1" as="geometry" />
        </mxCell>
        <mxCell id="gv6H3Rjc2FnPoGJvlaB8-137" value="Strategic Agent -1" style="text;html=1;align=center;verticalAlign=middle;whiteSpace=wrap;rounded=0;fontSize=11;container=0;" parent="d24at20l60suZ-zVcKSB-4" vertex="1">
          <mxGeometry x="5.925925925925924" y="60" width="53.333333333333336" height="25" as="geometry" />
        </mxCell>
        <mxCell id="d24at20l60suZ-zVcKSB-15" value="" style="group" vertex="1" connectable="0" parent="WIyWlLk6GJQsqaUBKTNV-1">
          <mxGeometry x="510" y="750" width="150" height="90" as="geometry" />
        </mxCell>
        <mxCell id="d24at20l60suZ-zVcKSB-8" value="" style="rounded=1;whiteSpace=wrap;html=1;fillColor=#b0e3e6;strokeColor=#0e8088;strokeWidth=2;fontSize=10;container=0;" vertex="1" parent="d24at20l60suZ-zVcKSB-15">
          <mxGeometry width="150" height="90" as="geometry" />
        </mxCell>
        <mxCell id="d24at20l60suZ-zVcKSB-9" value="Strategic Voting" style="shape=parallelogram;perimeter=parallelogramPerimeter;whiteSpace=wrap;html=1;fixedSize=1;fontSize=10;fillColor=#bac8d3;strokeColor=#23445d;container=0;" vertex="1" parent="d24at20l60suZ-zVcKSB-15">
          <mxGeometry x="65.18518518518516" y="10" width="71.11111111111111" height="25" as="geometry" />
        </mxCell>
        <mxCell id="d24at20l60suZ-zVcKSB-10" value="Voting Strategy" style="rhombus;whiteSpace=wrap;html=1;fontSize=8;fillColor=#dae8fc;strokeColor=#6c8ebf;container=0;" vertex="1" parent="d24at20l60suZ-zVcKSB-15">
          <mxGeometry x="77.03703703703701" y="50" width="47.407407407407405" height="35" as="geometry" />
        </mxCell>
        <mxCell id="d24at20l60suZ-zVcKSB-11" style="edgeStyle=orthogonalEdgeStyle;rounded=0;orthogonalLoop=1;jettySize=auto;html=1;exitX=1;exitY=0.5;exitDx=0;exitDy=0;entryX=0;entryY=0.5;entryDx=0;entryDy=0;" edge="1" parent="d24at20l60suZ-zVcKSB-15" source="d24at20l60suZ-zVcKSB-12" target="d24at20l60suZ-zVcKSB-9">
          <mxGeometry relative="1" as="geometry" />
        </mxCell>
        <mxCell id="d24at20l60suZ-zVcKSB-12" value="SA2" style="ellipse;whiteSpace=wrap;html=1;aspect=fixed;fillColor=#dae8fc;strokeColor=#6c8ebf;fontSize=14;container=0;" vertex="1" parent="d24at20l60suZ-zVcKSB-15">
          <mxGeometry x="16.74000000000001" y="6.649999999999977" width="31.7" height="31.7" as="geometry" />
        </mxCell>
        <mxCell id="d24at20l60suZ-zVcKSB-13" style="edgeStyle=orthogonalEdgeStyle;rounded=0;orthogonalLoop=1;jettySize=auto;html=1;exitX=0.5;exitY=0;exitDx=0;exitDy=0;entryX=0.5;entryY=1;entryDx=0;entryDy=0;" edge="1" parent="d24at20l60suZ-zVcKSB-15" source="d24at20l60suZ-zVcKSB-10" target="d24at20l60suZ-zVcKSB-9">
          <mxGeometry relative="1" as="geometry" />
        </mxCell>
        <mxCell id="d24at20l60suZ-zVcKSB-14" value="Strategic Agent -2" style="text;html=1;align=center;verticalAlign=middle;whiteSpace=wrap;rounded=0;fontSize=11;container=0;" vertex="1" parent="d24at20l60suZ-zVcKSB-15">
          <mxGeometry x="5.925925925925924" y="60" width="53.333333333333336" height="25" as="geometry" />
        </mxCell>
        <mxCell id="d24at20l60suZ-zVcKSB-16" style="edgeStyle=orthogonalEdgeStyle;rounded=0;orthogonalLoop=1;jettySize=auto;html=1;exitX=1;exitY=0.5;exitDx=0;exitDy=0;strokeWidth=2;fillColor=#fad9d5;strokeColor=#ae4132;" edge="1" parent="WIyWlLk6GJQsqaUBKTNV-1" source="gv6H3Rjc2FnPoGJvlaB8-73" target="gv6H3Rjc2FnPoGJvlaB8-111">
          <mxGeometry relative="1" as="geometry" />
        </mxCell>
        <mxCell id="d24at20l60suZ-zVcKSB-19" style="edgeStyle=orthogonalEdgeStyle;rounded=0;orthogonalLoop=1;jettySize=auto;html=1;entryX=0;entryY=0.75;entryDx=0;entryDy=0;fillColor=#b0e3e6;strokeColor=#0e8088;strokeWidth=2;" edge="1" parent="WIyWlLk6GJQsqaUBKTNV-1" source="d24at20l60suZ-zVcKSB-9" target="gv6H3Rjc2FnPoGJvlaB8-111">
          <mxGeometry relative="1" as="geometry" />
        </mxCell>
        <mxCell id="d24at20l60suZ-zVcKSB-20" style="edgeStyle=orthogonalEdgeStyle;rounded=0;orthogonalLoop=1;jettySize=auto;html=1;strokeWidth=3;fillColor=#bac8d3;strokeColor=#23445d;" edge="1" parent="WIyWlLk6GJQsqaUBKTNV-1" source="gv6H3Rjc2FnPoGJvlaB8-7">
          <mxGeometry relative="1" as="geometry">
            <mxPoint x="510" y="680" as="targetPoint" />
            <Array as="points">
              <mxPoint x="919" y="580" />
              <mxPoint x="410" y="580" />
              <mxPoint x="410" y="680" />
              <mxPoint x="510" y="680" />
            </Array>
          </mxGeometry>
        </mxCell>
        <mxCell id="d24at20l60suZ-zVcKSB-21" style="edgeStyle=orthogonalEdgeStyle;rounded=0;orthogonalLoop=1;jettySize=auto;html=1;exitX=0.5;exitY=1;exitDx=0;exitDy=0;fillColor=#bac8d3;strokeColor=#23445d;strokeWidth=3;" edge="1" parent="WIyWlLk6GJQsqaUBKTNV-1" source="gv6H3Rjc2FnPoGJvlaB8-7">
          <mxGeometry relative="1" as="geometry">
            <mxPoint x="510" y="780" as="targetPoint" />
            <Array as="points">
              <mxPoint x="919" y="580" />
              <mxPoint x="410" y="580" />
              <mxPoint x="410" y="780" />
              <mxPoint x="510" y="780" />
            </Array>
          </mxGeometry>
        </mxCell>
        <mxCell id="d24at20l60suZ-zVcKSB-23" style="edgeStyle=orthogonalEdgeStyle;rounded=0;orthogonalLoop=1;jettySize=auto;html=1;exitX=0.5;exitY=1;exitDx=0;exitDy=0;strokeWidth=3;fillColor=#fad7ac;strokeColor=#b46504;" edge="1" parent="WIyWlLk6GJQsqaUBKTNV-1" source="gv6H3Rjc2FnPoGJvlaB8-20">
          <mxGeometry relative="1" as="geometry">
            <mxPoint x="510" y="720" as="targetPoint" />
            <Array as="points">
              <mxPoint x="540" y="640" />
              <mxPoint x="450" y="640" />
              <mxPoint x="450" y="720" />
              <mxPoint x="510" y="720" />
            </Array>
          </mxGeometry>
        </mxCell>
        <mxCell id="d24at20l60suZ-zVcKSB-24" style="edgeStyle=orthogonalEdgeStyle;rounded=0;orthogonalLoop=1;jettySize=auto;html=1;exitX=0.5;exitY=1;exitDx=0;exitDy=0;entryX=0;entryY=0.75;entryDx=0;entryDy=0;fillColor=#fad7ac;strokeColor=#b46504;strokeWidth=3;" edge="1" parent="WIyWlLk6GJQsqaUBKTNV-1" source="gv6H3Rjc2FnPoGJvlaB8-20" target="d24at20l60suZ-zVcKSB-8">
          <mxGeometry relative="1" as="geometry">
            <mxPoint x="510" y="780" as="targetPoint" />
            <Array as="points">
              <mxPoint x="540" y="640" />
              <mxPoint x="450" y="640" />
              <mxPoint x="450" y="818" />
            </Array>
          </mxGeometry>
        </mxCell>
      </root>
    </mxGraphModel>
  </diagram>
</mxfile>
